<svg data-v-d3f97b9e="" xmlns="http://www.w3.org/2000/svg" viewBox="0 0 324 90"><!----><!----><!----><g data-v-d3f97b9e="" id="0fe95ead-c9ba-4e7e-a4b4-a938bd4b4af6" fill="white" transform="matrix(4.307347297668457,0,0,4.307347297668457,106.90303039550781,2.3808176517486572)"><path d="M4.93 12.46L4.93 12.46L4.93 12.46Q5.26 12.46 5.54 12.39L5.54 12.39L5.54 12.39Q5.88 11.97 6.05 11.19L6.05 11.19L6.05 11.19Q6.22 10.42 6.22 9.79L6.22 9.79L6.22 9.79Q6.22 7.57 5.05 7.57L5.05 7.57L5.05 7.57Q4.21 7.57 3.21 8.20L3.21 8.20L3.21 12.03L3.21 12.03Q4.12 12.46 4.93 12.46ZM1.40 14.55L1.40 14.55L1.40 9.03L1.40 9.03Q1.40 8.41 1.21 7.86L1.21 7.86L1.21 7.86Q1.02 7.31 0.71 7.14L0.71 7.14L0.69 6.83L2.97 6.29L3.14 6.55L3.14 6.55Q3.11 6.76 3.11 7.24L3.11 7.24L3.11 7.24Q4.05 6.30 5.07 6.30L5.07 6.30L5.07 6.30Q6.48 6.30 7.36 7.24L7.36 7.24L7.36 7.24Q8.23 8.18 8.23 9.52L8.23 9.52L8.23 9.52Q8.23 11.19 7.06 12.36L7.06 12.36L7.06 12.36Q5.88 13.54 4.38 13.54L4.38 13.54L4.38 13.54Q3.78 13.54 3.21 13.41L3.21 13.41L3.21 13.79L3.21 13.79Q3.21 15.46 3.77 16.09L3.77 16.09L3.77 16.39L1.34 16.69L1.34 16.69Q1.40 15.96 1.40 14.55ZM13.59 11.68L13.59 10.49L13.59 10.49Q13.09 10.30 12.48 10.30L12.48 10.30L12.48 10.30Q11.87 10.30 11.55 10.53L11.55 10.53L11.55 10.53Q11.34 10.79 11.34 11.23L11.34 11.23L11.34 11.23Q11.34 12.32 12.29 12.32L12.29 12.32L12.29 12.32Q13.08 12.32 13.59 11.68L13.59 11.68ZM11.72 13.54L11.72 13.54L11.72 13.54Q10.84 13.54 10.16 13.01L10.16 13.01L10.16 13.01Q9.49 12.47 9.49 11.47L9.49 11.47L9.49 11.47Q9.49 9.52 12.33 9.52L12.33 9.52L13.58 9.58L13.58 8.72L13.58 8.72Q13.58 7.99 13.22 7.55L13.22 7.55L13.22 7.55Q12.85 7.10 12.10 7.10L12.10 7.10L12.10 7.10Q11.93 7.10 11.66 7.27L11.66 7.27L11.66 7.27Q11.40 7.45 11.21 7.63L11.21 7.63L11.21 7.63Q10.64 8.18 10.29 8.53L10.29 8.53L10.29 8.53Q9.59 7.70 9.53 6.86L9.53 6.86L9.53 6.86Q11.33 6.30 12.56 6.30L12.56 6.30L12.56 6.30Q13.79 6.30 14.62 6.87L14.62 6.87L14.62 6.87Q15.44 7.45 15.44 8.68L15.44 8.68L15.44 10.88L15.44 10.88Q15.44 11.51 15.65 12.08L15.65 12.08L15.65 12.08Q15.86 12.66 16.17 12.85L16.17 12.85L16.20 13.16L14.20 13.58L14.20 13.58Q13.97 13.16 13.78 12.40L13.78 12.40L13.78 12.40Q13.41 12.80 13.19 12.98L13.19 12.98L13.19 12.98Q12.96 13.17 12.57 13.36L12.57 13.36L12.57 13.36Q12.17 13.54 11.72 13.54ZM18.68 6.38L18.68 6.58L18.68 6.58Q18.68 7.25 19.17 8.55L19.17 8.55L20.26 11.48L20.26 11.48Q21.43 7.85 21.43 7.18L21.43 7.18L21.43 7.15L21.43 7.15Q21.43 6.94 21.36 6.79L21.36 6.79L21.36 6.48L23.39 6.48L23.39 6.79L23.39 6.79Q23.21 6.99 22.83 8.02L22.83 8.02L22.83 8.02Q22.44 9.06 21.16 12.71L21.16 12.71L21.16 12.71Q19.88 16.35 19.84 16.48L19.84 16.48L19.84 16.73L17.57 16.86L17.53 16.55L17.53 16.55Q17.92 16.07 18.17 15.72L18.17 15.72L18.17 15.72Q18.86 14.76 19.38 13.41L19.38 13.41L17.37 8.81L17.37 8.81Q16.69 7.21 16.25 6.85L16.25 6.85L16.25 6.54L18.68 6.38ZM27.26 12.38L27.26 12.38L27.26 12.38Q28.06 12.38 28.06 11.61L28.06 11.61L28.06 11.61Q28.06 10.89 26.70 10.53L26.70 10.53L26.70 10.53Q26.14 10.37 25.58 10.18L25.58 10.18L25.58 10.18Q25.02 9.98 24.63 9.55L24.63 9.55L24.63 9.55Q24.23 9.11 24.23 8.44L24.23 8.44L24.23 8.44Q24.23 7.48 25.10 6.94L25.10 6.94L25.10 6.94Q25.97 6.40 27.22 6.40L27.22 6.40L27.22 6.40Q28.46 6.40 29.82 7.00L29.82 7.00L29.82 7.00Q29.75 7.62 29.06 8.48L29.06 8.48L29.06 8.48Q28.50 7.92 27.90 7.63L27.90 7.63L27.90 7.63Q27.30 7.34 26.85 7.34L26.85 7.34L26.85 7.34Q26.40 7.34 26.17 7.43L26.17 7.43L26.17 7.43Q25.96 7.62 25.96 8.03L25.96 8.03L25.96 8.03Q25.96 8.44 26.35 8.67L26.35 8.67L26.35 8.67Q26.75 8.89 27.33 9.02L27.33 9.02L27.33 9.02Q27.90 9.16 28.48 9.35L28.48 9.35L28.48 9.35Q29.05 9.55 29.45 10.02L29.45 10.02L29.45 10.02Q29.85 10.49 29.85 11.24L29.85 11.24L29.85 11.24Q29.85 12.33 29.00 12.89L29.00 12.89L29.00 12.89Q28.15 13.44 26.75 13.44L26.75 13.44L26.75 13.44Q25.35 13.44 24.08 12.64L24.08 12.64L24.08 12.64Q24.14 11.80 24.71 11.09L24.71 11.09L24.71 11.09Q26.10 12.38 27.26 12.38ZM34.56 13.55L34.56 13.55L34.56 13.55Q32.93 13.55 32.00 12.60L32.00 12.60L32.00 12.60Q31.07 11.65 31.07 10.09L31.07 10.09L31.07 10.09Q31.07 8.54 32.14 7.43L32.14 7.43L32.14 7.43Q33.22 6.31 34.89 6.31L34.89 6.31L34.89 6.31Q36.57 6.31 37.46 7.24L37.46 7.24L37.46 7.24Q38.35 8.18 38.35 9.74L38.35 9.74L38.35 9.74Q38.35 11.31 37.27 12.43L37.27 12.43L37.27 12.43Q36.19 13.55 34.56 13.55ZM36.33 10.09L36.33 10.09L36.33 10.09Q36.33 8.74 35.94 7.97L35.94 7.97L35.94 7.97Q35.55 7.21 34.57 7.21L34.57 7.21L34.57 7.21Q33.94 7.21 33.59 7.52L33.59 7.52L33.59 7.52Q33.36 7.84 33.22 8.48L33.22 8.48L33.22 8.48Q33.08 9.13 33.08 9.73L33.08 9.73L33.08 9.73Q33.08 12.66 34.94 12.66L34.94 12.66L34.94 12.66Q35.50 12.66 35.85 12.36L35.85 12.36L35.85 12.36Q36.09 12.04 36.21 11.38L36.21 11.38L36.21 11.38Q36.33 10.71 36.33 10.09ZM42.56 7.56L42.56 10.37L42.56 10.37Q42.56 11.03 42.69 11.83L42.69 11.83L42.69 11.83Q42.81 12.63 42.97 12.98L42.97 12.98L42.97 13.29L40.52 13.29L40.52 12.98L40.52 12.98Q40.75 12.28 40.75 10.70L40.75 10.70L40.75 7.53L40.75 7.53Q39.93 7.56 39.52 7.60L39.52 7.60L39.94 6.43L40.75 6.47L40.75 5.71L40.75 5.71Q40.75 4.49 41.37 3.71L41.37 3.71L41.37 3.71Q41.99 2.93 43.29 2.93L43.29 2.93L43.29 2.93Q44.59 2.93 46.03 3.53L46.03 3.53L46.03 3.53Q45.56 4.61 45.19 5.07L45.19 5.07L45.19 5.07Q44.04 4.09 43.26 4.09L43.26 4.09L43.26 4.09Q42.95 4.09 42.77 4.20L42.77 4.20L42.77 4.20Q42.56 4.52 42.56 5.91L42.56 5.91L42.56 6.48L42.56 6.48Q43.18 6.45 44.74 6.36L44.74 6.36L44.24 7.73L44.24 7.73Q43.33 7.60 42.56 7.56L42.56 7.56ZM48.19 7.57L48.19 11.66L48.19 11.66Q48.19 12.17 48.45 12.17L48.45 12.17L48.45 12.17Q48.83 12.17 49.87 11.73L49.87 11.73L50.29 12.36L50.29 12.36Q49.73 12.73 48.96 13.08L48.96 13.08L48.96 13.08Q48.19 13.44 47.61 13.44L47.61 13.44L47.61 13.44Q46.38 13.44 46.38 12.03L46.38 12.03L46.38 7.57L46.38 7.57Q46.17 7.57 45.00 7.67L45.00 7.67L45.50 6.41L45.50 6.41Q45.75 6.45 46.40 6.48L46.40 6.48L46.40 6.48Q46.37 5.84 46.31 5.29L46.31 5.29L48.19 4.82L48.19 6.47L48.19 6.47Q48.75 6.45 50.39 6.29L50.39 6.29L49.84 7.73L49.84 7.73Q49.13 7.60 48.19 7.57L48.19 7.57Z"></path></g><!----><g data-v-d3f97b9e="" id="bfa90b93-dc41-44a1-9293-81eff1faec47" transform="matrix(1.2676056623458862,0,0,1.2676056623458862,-0.07438483089208603,-0.1338038444519043)" stroke="none" fill="white"><path d="M34.8 59.1h3.1c.2 0 .4-.2.4-.4v-4.1c0-.2.1-.3.3-.4 2.8-.3 5.1-1.3 6.7-3 1.7-1.7 2.6-3.9 2.6-6.8s-.9-5.1-2.6-6.7c-1.7-1.6-4.4-3.1-8-4.5-1.9-.8-3.3-1.5-4-2.3-.7-.8-1.1-1.8-1.1-3.1s.3-2.4 1-3.2c.7-.8 1.7-1.2 3.1-1.2 1.3 0 2.4.5 3.2 1.6.7.9 1.1 2.3 1.2 3.9 0 .3.2.5.5.5h5.9c.3 0 .6-.3.6-.6v-.1c-.1-2.9-.9-5.2-2.4-7-1.6-1.9-3.7-3-6.4-3.5-.2 0-.4-.2-.4-.4v-4.5c0-.2-.2-.4-.4-.4h-3c-.2 0-.4.2-.4.4v4.4c0 .2-.2.4-.4.4-2.8.4-5 1.4-6.7 3-1.7 1.7-2.6 4-2.6 6.7 0 2.9.9 5.2 2.6 6.8 1.7 1.6 4.4 3.1 8 4.4 1.8.7 3.1 1.5 3.9 2.3.8.8 1.1 1.9 1.1 3.2 0 1.3-.4 2.4-1.2 3.2-.8.8-1.9 1.2-3.4 1.2s-2.8-.5-3.8-1.4c-1-.9-1.5-2.3-1.5-4.3 0-.2-.2-.3-.3-.3h-6.3c-.2 0-.3.2-.3.3v1c.2 3 1.1 5.3 2.9 6.9 1.9 1.8 4.3 2.8 7.2 3.2.2 0 .3.2.3.4v4.1c.2.2.4.3.6.3z"></path><path d="M36 4.4c7.3 0 14.1 2.4 19.8 6.9h-4.3c-1.1 0-2 .9-2 2s.9 2 2 2h9.3c1.1 0 2-.9 2-2V4c0-1.1-.9-2-2-2s-2 .9-2 2l.1 4.9C52.5 3.5 44.4.5 36 .5 16.4.5.5 16.4.5 36c0 1.1.9 2 2 2s2-.9 2-2C4.4 18.6 18.6 4.4 36 4.4zM69.5 34c-1.1 0-2 .9-2 2 0 17.4-14.2 31.6-31.6 31.6-7.4 0-14.5-2.6-20.2-7.3H20c1.1 0 2-.9 2-2s-.9-2-2-2h-9.3c-1.1 0-2 .9-2 2v9.3c0 1.1.9 2 2 2s2-.9 2-2v-4.7c6.4 5.6 14.7 8.6 23.2 8.6 19.6 0 35.5-15.9 35.5-35.5.1-1.1-.8-2-1.9-2z"></path></g><!----></svg>