<svg data-v-d3f97b9e="" xmlns="http://www.w3.org/2000/svg" viewBox="0 0 59.92077464788732 60"><!----><!----><!----><!----><g data-v-d3f97b9e="" id="73aa4744-3648-4a9f-8975-3c688798e4b8" transform="matrix(0.8450704216957092,0,0,0.8450704216957092,-0.422534316778183,-0.4225351810455322)" stroke="none" fill="white"><path d="M34.8 59.1h3.1c.2 0 .4-.2.4-.4v-4.1c0-.2.1-.3.3-.4 2.8-.3 5.1-1.3 6.7-3 1.7-1.7 2.6-3.9 2.6-6.8s-.9-5.1-2.6-6.7c-1.7-1.6-4.4-3.1-8-4.5-1.9-.8-3.3-1.5-4-2.3-.7-.8-1.1-1.8-1.1-3.1s.3-2.4 1-3.2c.7-.8 1.7-1.2 3.1-1.2 1.3 0 2.4.5 3.2 1.6.7.9 1.1 2.3 1.2 3.9 0 .3.2.5.5.5h5.9c.3 0 .6-.3.6-.6v-.1c-.1-2.9-.9-5.2-2.4-7-1.6-1.9-3.7-3-6.4-3.5-.2 0-.4-.2-.4-.4v-4.5c0-.2-.2-.4-.4-.4h-3c-.2 0-.4.2-.4.4v4.4c0 .2-.2.4-.4.4-2.8.4-5 1.4-6.7 3-1.7 1.7-2.6 4-2.6 6.7 0 2.9.9 5.2 2.6 6.8 1.7 1.6 4.4 3.1 8 4.4 1.8.7 3.1 1.5 3.9 2.3.8.8 1.1 1.9 1.1 3.2 0 1.3-.4 2.4-1.2 3.2-.8.8-1.9 1.2-3.4 1.2s-2.8-.5-3.8-1.4c-1-.9-1.5-2.3-1.5-4.3 0-.2-.2-.3-.3-.3h-6.3c-.2 0-.3.2-.3.3v1c.2 3 1.1 5.3 2.9 6.9 1.9 1.8 4.3 2.8 7.2 3.2.2 0 .3.2.3.4v4.1c.2.2.4.3.6.3z"></path><path d="M36 4.4c7.3 0 14.1 2.4 19.8 6.9h-4.3c-1.1 0-2 .9-2 2s.9 2 2 2h9.3c1.1 0 2-.9 2-2V4c0-1.1-.9-2-2-2s-2 .9-2 2l.1 4.9C52.5 3.5 44.4.5 36 .5 16.4.5.5 16.4.5 36c0 1.1.9 2 2 2s2-.9 2-2C4.4 18.6 18.6 4.4 36 4.4zM69.5 34c-1.1 0-2 .9-2 2 0 17.4-14.2 31.6-31.6 31.6-7.4 0-14.5-2.6-20.2-7.3H20c1.1 0 2-.9 2-2s-.9-2-2-2h-9.3c-1.1 0-2 .9-2 2v9.3c0 1.1.9 2 2 2s2-.9 2-2v-4.7c6.4 5.6 14.7 8.6 23.2 8.6 19.6 0 35.5-15.9 35.5-35.5.1-1.1-.8-2-1.9-2z"></path></g><!----></svg>